PathFileType	4	(X/Y/Z)	Kaydara	
DataRate	CameraRate	NumFrames	NumMarkers	Units	OrigDataRate	OrigDataStartFrame	OrigNumFrames	
120.00	120.00	4	72	mm	120.00	68	268	
Frame#	Time	Hips			RightUpLeg			RightLeg			RightFoot			RightFoot_End			LeftUpLeg			LeftLeg			LeftFoot			LeftFoot_End			Spine			Spine1			Spine2			Spine3			Neck			Head			Head_End			RightShoulder			RightArm			RightForeArm			RightHand			RightHandThumb1			RightHandThumb2			RightHandThumb3			RightHandThumb3_End			RightInHandIndex			RightHandIndex1			RightHandIndex2			RightHandIndex3			RightHandIndex3_End			RightInHandMiddle			RightHandMiddle1			RightHandMiddle2			RightHandMiddle3			RightHandMiddle3_End			RightInHandRing			RightHandRing1			RightHandRing2			RightHandRing3			RightHandRing3_End			RightInHandPinky			RightHandPinky1			RightHandPinky2			RightHandPinky3			RightHandPinky3_End			LeftShoulder			LeftArm			LeftForeArm			LeftHand			LeftHandThumb1			LeftHandThumb2			LeftHandThumb3			LeftHandThumb3_End			LeftInHandIndex			LeftHandIndex1			LeftHandIndex2			LeftHandIndex3			LeftHandIndex3_End			LeftInHandMiddle			LeftHandMiddle1			LeftHandMiddle2			LeftHandMiddle3			LeftHandMiddle3_End			LeftInHandRing			LeftHandRing1			LeftHandRing2			LeftHandRing3			LeftHandRing3_End			LeftInHandPinky			LeftHandPinky1			LeftHandPinky2			LeftHandPinky3			LeftHandPinky3_End			
		X1	Y1	Z1	X2	Y2	Z2	X3	Y3	Z3	X4	Y4	Z4	X5	Y5	Z5	X6	Y6	Z6	X7	Y7	Z7	X8	Y8	Z8	X9	Y9	Z9	X10	Y10	Z10	X11	Y11	Z11	X12	Y12	Z12	X13	Y13	Z13	X14	Y14	Z14	X15	Y15	Z15	X16	Y16	Z16	X17	Y17	Z17	X18	Y18	Z18	X19	Y19	Z19	X20	Y20	Z20	X21	Y21	Z21	X22	Y22	Z22	X23	Y23	Z23	X24	Y24	Z24	X25	Y25	Z25	X26	Y26	Z26	X27	Y27	Z27	X28	Y28	Z28	X29	Y29	Z29	X30	Y30	Z30	X31	Y31	Z31	X32	Y32	Z32	X33	Y33	Z33	X34	Y34	Z34	X35	Y35	Z35	X36	Y36	Z36	X37	Y37	Z37	X38	Y38	Z38	X39	Y39	Z39	X40	Y40	Z40	X41	Y41	Z41	X42	Y42	Z42	X43	Y43	Z43	X44	Y44	Z44	X45	Y45	Z45	X46	Y46	Z46	X47	Y47	Z47	X48	Y48	Z48	X49	Y49	Z49	X50	Y50	Z50	X51	Y51	Z51	X52	Y52	Z52	X53	Y53	Z53	X54	Y54	Z54	X55	Y55	Z55	X56	Y56	Z56	X57	Y57	Z57	X58	Y58	Z58	X59	Y59	Z59	X60	Y60	Z60	X61	Y61	Z61	X62	Y62	Z62	X63	Y63	Z63	X64	Y64	Z64	X65	Y65	Z65	X66	Y66	Z66	X67	Y67	Z67	X68	Y68	Z68	X69	Y69	Z69	X70	Y70	Z70	X71	Y71	Z71	X72	Y72	Z72	

68	0.558	1446.805	859.65103	-201.189	1531.878481738558	855.4862800895544	-232.4579507628785	1394.9874865425795	463.88704326168755	-285.0420908363721	1432.1904238684024	46.148447040020535	-345.8356247992671	1355.4439785346892	-32.80575799022134	-187.8676228072125	1371.1573669975953	836.0728372441262	-155.9582820501313	1249.9409452379407	439.47257110458594	-98.55395337498368	1193.9786688639726	62.78478881361635	70.64955500238973	1228.030689146893	17.943724020625037	251.9070561026957	1400.3950356770702	981.066746582763	-260.37920509973424	1346.847273356359	1046.1013754211497	-308.14448767019286	1284.419971338252	1107.1479834799334	-358.25207598252354	1216.5196941782522	1156.0244875392982	-406.6694166093808	1143.1691895337005	1208.6053728401293	-454.904220220339	1101.25140496377	1280.982223432762	-410.9074572773802	1077.9164744173017	1366.510287084663	-278.39348655088094	1186.1014260380937	1198.0441191328405	-457.82817174715717	1261.711134665433	1200.5526181077353	-532.3353376792273	1332.1004799324876	986.5040997685851	-549.4137960803596	1418.434505652689	894.013678060095	-632.5488381567557	1420.749634025207	899.5966307865832	-646.035004861787	1411.793636101285	900.209949226702	-661.9049764365453	1406.864860334349	898.5011396647623	-671.9241328022154	1403.875054406438	895.2493417963656	-679.3932115905136	1427.3191208475623	892.2963863753962	-643.201490617784	1438.5265796817312	882.4240535918789	-657.2494214802709	1437.418172371157	876.3858200879748	-668.9958893134872	1429.904328696681	875.5944470415837	-677.1314225012219	1419.0816191821093	876.9378125062576	-684.4269203193855	1430.0636646234038	886.8701688340672	-639.997427795046	1442.4821620823216	874.3057138981828	-651.9657063088089	1441.5873128314793	867.0338795314698	-664.3175661421103	1432.6731104943615	865.7514236512849	-673.9092314457041	1420.9045040066803	867.0619946313496	-681.7831538151299	1431.8179189612615	883.2640998700678	-637.351305313482	1444.7663575952156	868.8021859128439	-645.7101404760858	1444.2873267209238	861.786087919735	-655.9813014275214	1435.848659032866	860.1890468640341	-664.9704778985227	1424.8589216418704	861.2507213111387	-672.2494336484336	1432.7176457656099	879.5859221905841	-634.0833063773398	1445.4918494901178	863.9689965011291	-639.6594000038878	1445.5205157258167	857.3563507606901	-647.0759920072013	1439.5647423241444	855.7104295865236	-653.2417926151031	1429.9443889073768	856.3740550482813	-659.464781601192	1148.3523456961086	1187.238448402701	-418.0474382345238	1095.3109290770142	1124.0541316725212	-346.48626395355797	1197.0820550191738	996.3987840992006	-508.73838687422216	1373.2552794672047	927.4439857363412	-495.2632167053344	1365.41356992596	937.3742266098628	-501.3627354903736	1370.2789793945253	937.0333957433044	-527.0321493450057	1374.345467633469	934.7022277158579	-546.8806836392966	1378.3157097561568	930.9676186158051	-565.1148599480947	1365.9229776323255	931.2618244596302	-507.80646454091294	1362.4402157089087	927.241531066323	-539.4301989396486	1366.438813964065	921.8676943652224	-567.7737347775148	1372.1677202188353	919.1303028214442	-584.8124985520079	1379.0970263044246	917.2716728897269	-598.522598514489	1368.1940649613343	925.5844669989367	-512.3714626636074	1366.023680196298	918.5930534746874	-545.6837047229537	1370.7059317978985	911.9898272188498	-577.1198122538069	1377.770730264752	908.3325123671871	-597.9200520892275	1385.4270654994807	906.1263531267224	-613.0398305607082	1369.8259988519903	921.6876828007754	-514.7444922720209	1369.1176847546712	912.0734145302305	-546.5267532272801	1373.5288820670173	905.5732942937833	-574.3934854566309	1380.5187762566027	901.6500135247593	-594.7049224604102	1387.8007420416498	899.388255029704	-609.0388153698233	1372.292024553111	917.220946849053	-516.919066499993	1372.955285053937	905.6869545885618	-547.2688877187098	1377.0061945210246	899.3618517450259	-570.1736978854734	1382.3555085021362	895.9583950246788	-585.2744097387437	1388.950519509452	893.6430363344776	-598.1362013496158
69	0.567	1446.805	859.65103	-201.189	1531.5105531802744	855.3157429493942	-232.65473493693665	1394.9825916066593	463.66838159105157	-285.24534902584696	1432.4148190181747	46.338715999626274	-346.8369132637877	1356.1366474876836	-32.803889059929965	-189.03230448540253	1371.5088779252924	836.2385988444432	-155.76036984883595	1250.2340609741816	439.746204164209	-97.85284782097699	1194.0174918802588	63.3701054447595	71.88570708956493	1228.3015063225992	18.521917494395627	253.06354156843798	1400.4888806865733	981.0982132047218	-260.3717129769699	1347.0238982764038	1046.2446700260534	-308.055968381074	1284.7132998225175	1107.455917152891	-358.07389879950426	1216.962729812446	1156.5610184355555	-406.4135114411937	1143.7718611670164	1209.3807357046526	-454.56315751682695	1102.033512287156	1281.8321050244892	-410.5470629827455	1078.6338056591126	1367.4184936148608	-278.10371881140327	1186.616563715621	1198.8282023300267	-457.33566991215844	1262.1766987468336	1201.9508842522291	-531.1202065518926	1333.2735200383015	988.8808905654131	-547.4744115249873	1421.0628150645773	899.7403382466729	-631.161257776419	1423.5367976069194	906.5304235770443	-644.0338178981988	1415.1187921331934	908.20085251575	-659.8474386501506	1410.62539360839	907.1799989891367	-669.9460153652813	1408.0505008146056	904.4604762570107	-677.5828604309905	1430.324407842113	899.1882231381794	-641.5437459559078	1442.3945310958043	890.8306553753657	-655.7303234214802	1441.962037563475	885.7390826862803	-667.7105931086081	1434.7934850031802	885.3990074358829	-675.9594335715176	1424.2060434525324	887.0233259278677	-683.3270821776995	1433.2076861595917	893.5730401618147	-638.6641829313976	1446.5426144598614	882.3838531632753	-650.9431868309196	1446.400927757225	876.1150439876855	-663.5927068914109	1437.9108085501334	875.3626748607894	-673.3414808133182	1426.4032576267498	876.973663518085	-681.3042670977757	1435.037744750777	889.7958897399416	-636.2431952975436	1448.872718801494	876.4211453099476	-645.07419779088	1449.0646538323574	870.246457939602	-655.6478072626577	1441.042744115282	869.1432875606833	-664.8113533921214	1430.3021130532582	870.4791633439515	-672.1846911609966	1436.0014145807122	885.8681573501474	-633.2353083727537	1449.627774364968	871.0986333474243	-639.4028931795452	1450.2124864982122	865.103802595526	-647.1266940515474	1444.5697667376626	863.7910415685498	-653.451139298083	1435.175316819823	864.6819955463214	-659.7758382025485	1148.9254279160057	1187.827384602459	-417.91267402753266	1095.9637162732074	1124.6489352338865	-346.95360131530344	1199.3007960636658	1000.8250622449302	-509.7334856383378	1377.707131249334	937.406780936572	-495.4778879896734	1370.2825599309049	947.6508403931952	-501.4368196881514	1375.3085818008487	947.4265246851338	-526.9775465792952	1379.4366636326051	945.1845535414517	-546.7570827898917	1383.4152550078845	941.5312050217117	-564.9513595945998	1370.6659371868507	941.6249709093008	-507.9451307808012	1367.372940968851	938.1214442682544	-539.5134964626452	1371.418846308836	932.9530975680165	-567.7992137958926	1377.1568585592354	930.2121985929599	-584.778934048597	1384.0800105464548	928.2621135211213	-598.424610286756	1372.789694859207	935.9442226175182	-512.5671787343022	1370.7247414684161	929.4550446369362	-545.8562918872984	1375.4384547965672	923.0737429907515	-577.2369932191103	1382.5045629578174	919.4110821265951	-597.9697027936195	1390.1494617895878	917.1043279958969	-613.0207716945707	1374.3132662237888	932.0335627335335	-514.982254853293	1373.607041492403	922.8624200844961	-546.7812198191549	1378.0248835549482	916.5525308682328	-574.6075388299732	1385.0050016501912	912.6224106581698	-594.8580197218839	1392.2709892343846	910.2652671899208	-609.1292965393754	1376.6444232684137	927.5223363003165	-517.2043747924134	1377.2284157009053	916.37326352002	-547.5998800101796	1381.2522177506419	910.1935935105749	-570.4845476510303	1386.5787159402066	906.7818051857482	-585.5467237827393	1393.150536590695	904.3800280131114	-598.3564618070048
70	0.575	1446.805	859.65103	-201.189	1531.1343618387496	855.1547602027023	-232.8815537266113	1395.040204123764	463.45052478772834	-285.58483679748434	1432.863106528492	46.54646954242753	-347.98616242233834	1357.0696723848157	-32.78481755805949	-190.3393703620283	1371.876195709635	836.3972811133468	-155.5320366534393	1250.497145845321	440.0132194104574	-97.20184704956174	1193.9340004163357	64.07655694103178	73.2808718149294	1228.4288127814089	19.259787239496255	254.38920785064496	1400.5502253237983	981.1182255538164	-260.36403745094833	1347.185650304344	1046.4015492659096	-307.94806004560564	1285.0257241980798	1107.8192156955456	-357.85858140789003	1217.4853308484796	1157.2267468841283	-406.11414117764656	1144.5189370207133	1210.3632382848377	-454.1726169461347	1103.0604427796502	1282.9275774723012	-410.1153328708741	1079.4830383808264	1368.5935704095816	-277.7736126052292	1187.2880333982164	1199.8731552399179	-456.7012958472948	1262.9420495161228	1204.0588633540424	-529.4199928440189	1336.0403881481775	992.5978340772298	-545.4703287353623	1426.365564418253	908.7362365112708	-630.1071459311005	1428.8013789469271	916.1883460496341	-642.5305057971918	1420.5787031258658	918.4769353826215	-658.2230026854597	1416.2565944768855	917.8759749907854	-668.301213607979	1413.8546361635558	915.4974252108757	-675.9757854504257	1435.6998723104202	908.8816561607458	-640.209662004747	1448.0637207518992	901.4954356019146	-654.2873504870157	1447.8995956358242	897.0115531755571	-666.2925993648431	1440.8814884996866	896.9450566239339	-674.5686048303584	1430.407506833267	898.7255100333206	-681.9666088757936	1438.67183430794	903.2005758646641	-637.5126648192415	1452.341206502345	892.9232066750269	-649.7841770487487	1452.503187249954	887.3055564311986	-662.4855223536495	1444.1997688783968	886.8775236089274	-672.2788629367622	1432.8188952581231	888.6565830816343	-680.2805973798028	1440.5566921135287	899.3529015251129	-635.222817451589	1454.7379137970274	886.7364939492941	-644.1590996884273	1455.2050709150346	881.1157230320312	-654.8030014697316	1447.3688509930055	880.3181678544886	-664.0228867945755	1436.7499841434865	881.8086338977416	-671.439162121551	1441.5778556754378	895.3093136150901	-632.3741533132162	1455.5561238435207	881.1669521059779	-638.7343306480535	1456.3761659338657	875.5910936906358	-646.5531754569964	1450.8761270447987	874.4893452822306	-652.9374604633111	1441.593682832155	875.5103980118573	-659.3109793200919	1149.5778345093536	1188.509100312259	-417.81811390744815	1096.5314612808486	1125.1645813241369	-347.8812454915393	1200.1971878773356	1002.4932596066976	-509.64152678673736	1380.6380670030426	945.4852013081362	-494.0952606140504	1373.9553590289484	956.2532268359894	-499.8130195255795	1379.2664196401554	956.2306958978443	-525.1875108580588	1383.5017033802833	954.1472792506505	-544.8950900603212	1387.4915682838732	950.6415458654722	-563.0668674692176	1374.1071406988476	950.3891576532117	-506.4599058526815	1371.1358585294731	947.7880116286876	-538.0181623995273	1375.2582451931335	942.9854713262054	-566.2773604161384	1381.012298914615	940.2433830744133	-583.1949997491554	1387.927476471148	938.1381099519307	-596.7585326525564	1375.9644041474576	944.7135954061248	-511.2005451279435	1374.0691355321703	939.1074470003781	-544.5439492519736	1378.8299066760576	933.1227496419914	-575.9113621874577	1385.8979035541643	929.4574096793468	-596.5766817351206	1393.5255716997676	926.9802553286883	-611.5415242321254	1377.2924433881842	940.7865343465761	-513.7001394685932	1376.5713700633103	932.4011773419862	-545.6225416511835	1380.9927576692908	926.4329150976997	-573.4532056103935	1387.954801402174	922.4980699566689	-593.6471290400577	1395.195164465543	919.9796711642495	-607.8413281467342	1379.3813200014256	936.2069439067108	-516.0161677911727	1379.8056732112439	925.7466649889866	-546.584407022327	1383.7739129711804	919.8307820065323	-569.4968264473482	1389.0589684601202	916.4108269364089	-584.5295049927968	1395.591835653239	913.8634805915159	-597.2777200387192
71	0.583	1446.805	859.65103	-201.189	1530.773909533213	854.9994443882651	-233.05802944478881	1395.1135413677453	463.2275636073357	-285.7977683678273	1433.374433233033	46.73251059064617	-348.8677823753841	1358.055789799236	-32.77227079807667	-191.3779200661667	1372.221060078918	836.5486499514849	-155.3529180194881	1250.7140530039478	440.25896777538	-96.72943185067096	1193.7940851432693	64.77527044204335	74.50287429416345	1228.518362634735	20.031604085927604	255.54500093895857	1400.6400198678089	981.1450886469383	-260.36439394406403	1347.409239117298	1046.5872789382067	-307.8510068944391	1285.4403265629728	1108.2415032882354	-357.65974040169914	1218.1595070674496	1157.9959903817467	-405.84312940109294	1145.4700163363955	1211.496675708828	-453.8236747678714	1104.3528253277377	1284.1973621208128	-409.7121615224603	1080.5363361219322	1369.9428734366447	-277.4820458211899	1188.169012045251	1201.0960202340023	-456.04320290958043	1264.0162031996385	1206.641127368664	-527.4652466182333	1340.3800424179572	997.2899879511399	-543.7708271539244	1433.8868650067411	919.9284654349469	-629.6304728272677	1436.362113137716	928.4128494007152	-641.4194771728139	1428.52962610935	931.6549928968062	-657.0050868026883	1424.5330419226977	931.6906570964675	-667.114546181074	1422.4484837594005	929.8193732105781	-674.9055677295923	1443.441125187968	921.1196608087791	-639.3915449330322	1456.409617852937	915.1560056386367	-653.4593757865202	1456.7512660793084	911.5708286604765	-665.6057464236889	1450.0035217085924	911.9249225408386	-673.9654112710557	1439.7236065455963	913.9603312209957	-681.4298926742435	1446.5423991213436	915.310156993541	-636.9893517007624	1460.871427306045	906.3508519714093	-649.4106594688762	1461.6005268628662	901.6921959411942	-662.3051176276255	1453.6306027807161	901.7611977935286	-672.2181448247455	1442.4656018464107	903.8141574807827	-680.3017594104275	1448.5027929117318	911.3364658643263	-634.9072085792947	1463.3396208681393	899.7949475879568	-644.1556791122214	1464.3155778899188	894.985804743024	-655.0076478439416	1456.8087460113888	894.6547875769625	-664.3641031572313	1446.396513870307	896.3966959734715	-671.8673532753827	1449.5965824688064	907.0983191281323	-632.304655647121	1464.2198174870505	893.8258074463399	-639.1001431383128	1465.4670667145342	888.8573471390044	-647.1462564026351	1460.2168438656859	888.0753341133795	-653.659505608839	1451.122958398981	889.3072854476638	-660.1269645716193	1150.3876252055763	1189.278089535207	-417.81831118989817	1097.1409747142543	1125.6223881762785	-349.24043452658515	1201.5297207120375	1004.9063575877118	-510.23989364145194	1383.1086452014597	953.8603169281819	-493.1257596775056	1377.366284421322	965.2759366577625	-498.53312557325125	1383.0282725548943	965.4995689226831	-523.717681640416	1387.390494766465	963.6128365146863	-543.3508273725039	1391.3856927212464	960.2926888327975	-561.5100156827351	1377.2186919100807	959.6238997171453	-505.3615818309379	1374.6379409514848	958.1614333128183	-536.9255551608036	1378.842956858619	953.8198138933649	-565.1740405785044	1384.6099238272184	951.0733851308861	-582.0293844565925	1391.509843388902	948.7682951905799	-595.5038467981211	1378.733900258067	953.961661314373	-510.2586116873801	1377.0345842906029	949.4734497470594	-543.6921883577023	1381.8388849549829	943.9893459505103	-575.0685029373259	1388.90008062094	940.3176449107629	-595.6685593639896	1396.500193659805	937.6213108220223	-610.5407473460737	1379.8115440084603	950.0187098610354	-512.869079278543	1379.0523340666105	942.6324347189433	-544.970082245394	1383.463659930942	937.0962985775614	-572.8294078727614	1390.393659923175	933.1530819939909	-592.971490586339	1397.596028223152	930.4275486343132	-607.0838193394997	1381.5908219131295	945.3582115324799	-515.3085685040111	1381.7935834348425	935.7773924453884	-546.1184990640693	1385.6790496286903	930.1965956068087	-569.0857135252015	1390.9045966236135	926.7652340779919	-584.0959602343107	1397.3830110193953	924.0313538922092	-596.7805155862306
